<?xml version="1.0" encoding="utf-8"?>
<!-- Generator: Adobe Illustrator 22.1.0, SVG Export Plug-In . SVG Version: 6.00 Build 0)  -->
<svg version="1.1" xmlns="http://www.w3.org/2000/svg" xmlns:xlink="http://www.w3.org/1999/xlink" x="0px" y="0px"
	 viewBox="0 0 2272 1872" style="enable-background:new 0 0 2272 1872;" xml:space="preserve">
<style type="text/css">
	.st0{fill:none;stroke:#FFFFFF;stroke-miterlimit:10;}
	.st1{fill:#FFE8A9;}
	.st2{fill:#FFE197;}
	.st3{fill:#FFF7F3;}
	.st4{fill:#DCE7FD;}
	.st5{fill:#A7B8D3;}
	.st6{fill:#440235;}
	.st7{fill:#44262B;}
	.st8{fill:#4DA8BB;}
	.st9{fill:#3B8089;}
	.st10{fill:#FCD2BB;}
	.st11{fill:#CCA693;}
	.st12{fill:#6B3D44;}
	.st13{fill:#4F2F35;}
	.st14{fill:#FFECE3;}
	.st15{fill:#FFFFFF;}
</style>
<g id="Background">
	<g>
		<g>
			<g>
				<rect x="0" class="st0" width="2272" height="1872"/>
			</g>
		</g>
	</g>
</g>
<g id="object">
	<g>
		<g>
			<path class="st1" d="M2087.5,1402.6c35.2-101.5,54.3-210.4,54.3-323.9c0-546.1-442.7-988.8-988.8-988.8s-988.8,442.7-988.8,988.8
				c0,102.5,15.6,201.4,44.6,294.4c137.4-115.4,499.5-197.8,924.6-197.8C1593.8,1175.3,1980.4,1272,2087.5,1402.6z"/>
		</g>
		<g>
			<path class="st2" d="M1152.9,221.7c-472.8,0-856.1,383.3-856.1,856.1c0,78.2,10.5,153.9,30.1,225.9
				c57.9-25.3,128.1-47.7,208.1-66.4c154-46.9,366.4-75.8,600.9-75.8c243.7,0,463.5,31.3,618.7,81.4c86.7,21.6,161.2,47.7,219.6,77
				c22.6-76.8,34.7-158,34.7-242.1C2009,605,1625.7,221.7,1152.9,221.7z"/>
		</g>
		<g>
			<path class="st4" d="M2132.7,1481.5c0,166-440.4,300.6-983.6,300.6S130.3,1647.5,130.3,1481.5s475.6-300.6,1018.8-300.6
				S2132.7,1315.5,2132.7,1481.5z"/>
			<polygon class="st5" points="308.1,1613.9 2000.5,1613.9 1924.1,1316.5 384.5,1316.5 			"/>
			<g>
				<g>
					<g>
						<path class="st6" d="M1968.3,1475.6c-22.1,33.3-87.8,36-151.4,5.2c-66.8-32.4-106-89.5-87.5-127.6
							c18.5-38.1,87.6-42.8,154.4-10.4c15,7.3,28.6,15.8,40.4,25l-20-48.8l-1421-514.9L308.1,991.5l1692.5,622.4l21.2-59.1
							L1968.3,1475.6z"/>
						<path class="st6" d="M1924.1,1316.5v51.3l-66.4-52c-11.9-9.3-26.4-14.9-41.5-15.9l-82.3-5.6l-6.7-43.5l48.2-24.9
							C1775.5,1226,1902.1,1279.9,1924.1,1316.5z"/>
						<path class="st6" d="M340.3,1475.6c22,33.3,87.8,36,151.4,5.2c66.8-32.4,106-89.5,87.5-127.6c-18.5-38.1-87.6-42.8-154.4-10.4
							c-15,7.3-28.6,15.8-40.4,25l20-48.8l1421-514.9l175.1,187.3L308.1,1613.9l-21.2-59.1L340.3,1475.6z"/>
						<path class="st6" d="M384.5,1316.5v51.3l66.4-52c11.9-9.3,26.4-14.9,41.5-15.9l82.3-5.6l6.7-43.5l-48.2-24.9
							C533.1,1226,406.5,1279.9,384.5,1316.5z"/>
						<path class="st7" d="M340.3,1424.3c22,33.3,87.8,36,151.4,5.2c66.8-32.4,106-89.5,87.5-127.6c-18.5-38.1-87.6-42.8-154.4-10.4
							c-15,7.3-28.6,15.8-40.4,25l34.4-49.8l1421-514.9l160.7,188.3L312.1,1580l-25.3-25.2L340.3,1424.3z"/>
						<path class="st7" d="M1968.3,1424.3c-22.1,33.3-87.8,36-151.4,5.2c-66.8-32.4-106-89.5-87.5-127.6
							c18.5-38.1,87.6-42.8,154.4-10.4c15,7.3,28.6,15.8,40.4,25l-5.6-49.8l-1421-514.9L308.1,940.2L1996.5,1580l25.3-25.2
							L1968.3,1424.3z"/>
						<polygon class="st6" points="1839.9,751.9 1168.7,995 1168.7,1255.4 1520,1122.3 2000.5,940.2 						"/>
						<g>
							<path class="st8" d="M1839.9,713.9L1168.7,957v260.4l351.2-133.1l473.7-179.5c4.3-1.6,7.6-5.3,8.6-9.8l0,0
								c1.1-4.6-0.2-9.4-3.4-12.9L1839.9,713.9z"/>
							<path class="st9" d="M1998.8,882.1l-159-168.3L1168.7,957v244.1l833.8-311.2C2002.1,887,2000.9,884.3,1998.8,882.1z"/>
							<polygon class="st10" points="1839.9,682.7 1168.7,925.9 1168.7,1186.3 1520,1053.2 1993.3,884.8 2000.5,828.9 							"/>
							<polygon class="st3" points="1168.7,1186.3 1520,1053.2 1993.3,884.8 2000.5,828.9 1168.7,1178.2 							"/>
						</g>
						<g>
							<path class="st8" d="M1839.9,713.9L1168.7,957v260.4l351.2-133.1l473.7-179.5c4.3-1.6,7.6-5.3,8.6-9.8l0,0
								c1.1-4.6-0.2-9.4-3.4-12.9L1839.9,713.9z"/>
							<path class="st9" d="M1998.8,882.1l-159-168.3L1168.7,957v244.1l833.8-311.2C2002.1,887,2000.9,884.3,1998.8,882.1z"/>
							<polygon class="st10" points="1839.9,682.7 1168.7,925.9 1168.7,1186.3 1520,1053.2 1993.3,884.8 2000.5,828.9 							"/>
							<polygon class="st3" points="1168.7,1186.3 1520,1053.2 1993.3,884.8 2000.5,828.9 1168.7,1144 							"/>
						</g>
						<g>
							<path class="st8" d="M497.7,713.9L1168.8,957v260.4l-351.2-133.1L343.9,904.8c-4.3-1.6-7.6-5.3-8.6-9.8h0
								c-1.1-4.6,0.2-9.4,3.4-12.9L497.7,713.9z"/>
							<path class="st9" d="M338.7,882.1l159-168.3L1168.8,957v244.1L335,889.9C335.4,887,336.7,884.3,338.7,882.1z"/>
							<polygon class="st11" points="497.7,682.7 1168.8,925.9 1168.8,1186.3 817.6,1053.2 344.3,884.8 345.2,821.8 							"/>
							<polygon class="st10" points="1168.8,1186.3 817.6,1053.2 344.3,884.8 345.2,821.8 1168.8,1144 							"/>
						</g>
						<g>
							<path class="st6" d="M1221.5,1286.3l424.2,160.7c-18.9-97.3-39.2-194.3-61-291L1221.5,1286.3z"/>
							
								<rect x="1122.9" y="366.8" transform="matrix(0.3376 -0.9413 0.9413 0.3376 -437.4643 1932.4661)" class="st12" width="62.8" height="1820.5"/>
							<circle class="st12" cx="1168.7" cy="1282.2" r="68.5"/>
						</g>
					</g>
					<g>
						<g>
							<path class="st6" d="M1087.1,1286.3L662.9,1447c18.9-97.3,39.2-194.3,61-291L1087.1,1286.3z"/>
							
								<rect x="1122.9" y="366.8" transform="matrix(-0.3376 -0.9413 0.9413 -0.3376 341.8931 2794.7065)" class="st12" width="62.8" height="1820.5"/>
						</g>
					</g>
				</g>
				<circle class="st13" cx="1168.8" cy="1283.6" r="45.5"/>
				<circle class="st6" cx="1168.8" cy="1283.6" r="35.5"/>
				<g>
					<path class="st10" d="M513.6,704.8L400.7,828.9c0,0,643.1,208.2,748.4,288.1V934.5C1149.1,934.5,612.6,720.2,513.6,704.8z"/>
					<g>
						<path class="st11" d="M1134.9,1084.4l-2.4-1.6c-53.1-34.8-237.5-105-382.8-157.8c-157.6-57.2-304.5-106.8-305.9-107.3
							l-2.2-0.7l83.6-98.1l0.9,0.1c88.1,13.7,602.7,217.7,607.9,219.7l1,0.4V1084.4z M446.9,815.4c39.3,13.3,579.8,197,684.8,263.2
							V941.2c-25.6-10.1-517.1-204.5-605.4-219L446.9,815.4z"/>
					</g>
					<g>
						<path class="st3" d="M1116.9,950.6c-0.4,0-0.8-0.1-1.2-0.3c-95.7-46.9-582.1-204.8-587-206.3c-1.4-0.4-2.1-1.9-1.7-3.3
							c0.4-1.4,1.9-2.1,3.3-1.7c4.9,1.6,491.7,159.5,587.7,206.6c1.3,0.6,1.8,2.2,1.2,3.5C1118.8,950.1,1117.9,950.6,1116.9,950.6z"
							/>
					</g>
					<g>
						<path class="st3" d="M1114.6,967.1c-0.4,0-0.8-0.1-1.2-0.3c-95.7-46.9-582.1-204.8-587-206.3c-1.4-0.4-2.1-1.9-1.7-3.3
							c0.4-1.4,1.9-2.1,3.3-1.7c4.9,1.6,491.7,159.5,587.7,206.6c1.3,0.6,1.8,2.2,1.2,3.5C1116.5,966.6,1115.5,967.1,1114.6,967.1z"
							/>
					</g>
					<g>
						<path class="st3" d="M1113.5,995.2c-0.4,0-0.8-0.1-1.2-0.3c-95.7-46.9-599.7-215.3-604.8-217c-1.4-0.5-2.1-2-1.7-3.3
							c0.5-1.4,2-2.1,3.3-1.7c5.1,1.7,509.5,170.1,605.5,217.2c1.3,0.6,1.8,2.2,1.2,3.5C1115.4,994.7,1114.4,995.2,1113.5,995.2z"/>
					</g>
					<g>
						<path class="st3" d="M1113.5,1018.7c-0.4,0-0.8-0.1-1.2-0.3c-95.7-46.9-614.1-222.3-619.4-224.1c-1.4-0.5-2.1-2-1.7-3.3
							c0.5-1.4,2-2.1,3.3-1.7c5.2,1.8,524,177.2,620,224.3c1.3,0.6,1.8,2.2,1.2,3.5C1115.4,1018.1,1114.4,1018.7,1113.5,1018.7z"/>
					</g>
					<g>
						<path class="st3" d="M1116.9,1044c-0.4,0-0.8-0.1-1.2-0.3c-95.7-47-632-231.2-637.4-233c-1.4-0.5-2.1-2-1.6-3.3
							c0.5-1.4,2-2.1,3.3-1.6c5.4,1.9,542,186.2,638,233.3c1.3,0.6,1.8,2.2,1.2,3.5C1118.8,1043.5,1117.9,1044,1116.9,1044z"/>
					</g>
				</g>
				<g>
					<path class="st14" d="M1821.4,704.8l112.9,124.1c0,0-643.1,208.2-748.4,288.1V934.5C1185.9,934.5,1722.5,720.2,1821.4,704.8z"
						/>
					<g>
						<path class="st11" d="M1200.1,939l1-0.4c5.2-2.1,519.8-206,607.9-219.7l0.9-0.1l83.6,98.1l-2.2,0.7
							c-1.5,0.5-148.3,50.1-305.9,107.3c-145.4,52.8-329.8,123-382.8,157.8l-2.4,1.6V939z M1808.7,722.2
							c-88.3,14.5-579.8,208.9-605.4,219v137.4c105-66.2,645.5-249.9,684.8-263.2L1808.7,722.2z"/>
					</g>
					<g>
						<path class="st15" d="M1218.1,950.6c0.4,0,0.8-0.1,1.2-0.3c95.7-46.9,582.1-204.8,587-206.3c1.4-0.4,2.1-1.9,1.7-3.3
							c-0.4-1.4-1.9-2.1-3.3-1.7c-4.9,1.6-491.7,159.5-587.7,206.6c-1.3,0.6-1.8,2.2-1.2,3.5
							C1216.2,950.1,1217.1,950.6,1218.1,950.6z"/>
					</g>
					<g>
						<path class="st15" d="M1220.5,967.1c0.4,0,0.8-0.1,1.2-0.3c95.7-46.9,582.1-204.8,587-206.3c1.4-0.4,2.1-1.9,1.7-3.3
							s-1.9-2.1-3.3-1.7c-4.9,1.6-491.7,159.5-587.7,206.6c-1.3,0.6-1.8,2.2-1.2,3.5C1218.6,966.6,1219.5,967.1,1220.5,967.1z"/>
					</g>
					<g>
						<path class="st15" d="M1221.5,995.2c0.4,0,0.8-0.1,1.2-0.3c95.7-46.9,599.7-215.3,604.8-217c1.4-0.5,2.1-2,1.7-3.3
							c-0.5-1.4-2-2.1-3.3-1.7c-5.1,1.7-509.5,170.1-605.5,217.2c-1.3,0.6-1.8,2.2-1.2,3.5C1219.6,994.7,1220.6,995.2,1221.5,995.2z
							"/>
					</g>
					<g>
						<path class="st15" d="M1221.5,1018.7c0.4,0,0.8-0.1,1.2-0.3c95.7-46.9,614.1-222.3,619.4-224.1c1.4-0.5,2.1-2,1.7-3.3
							c-0.5-1.4-2-2.1-3.3-1.7c-5.2,1.8-524,177.2-620,224.3c-1.3,0.6-1.8,2.2-1.2,3.5C1219.6,1018.1,1220.6,1018.7,1221.5,1018.7z"
							/>
					</g>
					<g>
						<path class="st15" d="M1218.1,1044c0.4,0,0.8-0.1,1.2-0.3c95.7-47,632-231.2,637.4-233c1.4-0.5,2.1-2,1.6-3.3
							c-0.5-1.4-2-2.1-3.3-1.6c-5.4,1.9-542,186.2-638,233.3c-1.3,0.6-1.8,2.2-1.2,3.5C1216.2,1043.5,1217.1,1044,1218.1,1044z"/>
					</g>
				</g>
			</g>
		</g>
	</g>
</g>
</svg>
